<?xml version="1.0" encoding="utf-8"?>

<!-- License Agreement at http://iconmonstr.com/license/ -->

<!DOCTYPE svg PUBLIC "-//W3C//DTD SVG 1.1//EN" "http://www.w3.org/Graphics/SVG/1.1/DTD/svg11.dtd">
<svg version="1.1" xmlns="http://www.w3.org/2000/svg" xmlns:xlink="http://www.w3.org/1999/xlink" x="0px" y="0px"
	 width="512px" height="512px" viewBox="0 0 512 512" style="enable-background:new 0 0 512 512;" xml:space="preserve">
<path id="puzzle-1" d="M92.556,359c16.79,0,22.473-9.002,29.312-15.825C135.833,329.159,153,335.128,153,357.71V462h104.29
	c22.582,0,28.551-17.167,14.544-31.131c-6.832-6.84-15.834-12.523-15.834-29.321C256,382.889,275.028,359,307.5,359
	s51.5,23.889,51.5,42.548c0,16.798-9.002,22.481-15.825,29.321C329.159,444.833,335.128,462,357.71,462H462V357.71
	c0-22.582-17.167-28.551-31.131-14.535c-6.84,6.823-12.523,15.825-29.321,15.825C382.889,359,359,339.972,359,307.5
	s23.889-51.5,42.548-51.5c16.798,0,22.481,9.002,29.321,15.834C444.833,285.841,462,279.872,462,257.29V153H357.71
	c-22.582,0-28.551-17.167-14.535-31.131c6.823-6.84,15.825-12.523,15.825-29.312C359,73.889,339.972,50,307.5,50
	S256,73.889,256,92.556c0,16.79,9.002,22.473,15.834,29.312C285.841,135.833,279.872,153,257.29,153H153v104.29
	c0,22.582-17.167,28.551-31.131,14.544C115.029,265.002,109.346,256,92.556,256C73.889,256,50,275.028,50,307.5
	S73.889,359,92.556,359z"/>
</svg>
