<?xml version="1.0" encoding="utf-8"?>

<!-- License Agreement at http://iconmonstr.com/license/ -->

<!DOCTYPE svg PUBLIC "-//W3C//DTD SVG 1.1//EN" "http://www.w3.org/Graphics/SVG/1.1/DTD/svg11.dtd">
<svg version="1.1" xmlns="http://www.w3.org/2000/svg" xmlns:xlink="http://www.w3.org/1999/xlink" x="0px" y="0px"
	 width="512px" height="512px" viewBox="0 0 512 512" enable-background="new 0 0 512 512" xml:space="preserve">
<path id="paperclip-2-icon" d="M289.05,84.63L98.225,308.136c-6.35,7.44-9.126,17.291-7.594,26.954l10.514,66.144
	c1.32,8.312,8.484,14.441,16.901,14.44h66.971c9.785,0,19.079-4.283,25.434-11.725l206.015-241.29
	c5.93-6.943,5.104-17.379-1.841-23.305l-42.83-36.57c-6.946-5.928-17.38-5.104-23.31,1.837l-152.4,178.477
	c-3.312,3.872-1.941,7.557-0.754,15.562c0.647,4.358,4.409,7.572,8.817,7.528c8.201-0.082,11.959,0.677,15.254-3.186
	l104.745-122.653l30.031,25.641l-108.396,126.93c-5.823,6.821-14.307,10.795-23.272,10.904h-40.639
	c-10.349,0.124-19.191-6.943-20.691-17.18l-5.896-40.215c-1.304-8.875,1.292-17.878,7.118-24.697L321.757,75.111
	c18.261-21.39,50.409-23.929,71.803-5.664l50.576,43.18c21.395,18.265,23.932,50.414,5.666,71.806L235.457,435.479
	c-10.447,12.243-25.735,19.284-41.83,19.271h-89.321c-19.688-0.012-36.449-14.382-39.549-33.821l-14.072-88.213
	c-2.53-15.89,2.027-32.097,12.479-44.339L259.017,58.988L289.05,84.63z"/>
</svg>
