<?xml version="1.0" encoding="utf-8"?>

<!-- License Agreement at http://iconmonstr.com/license/ -->

<!DOCTYPE svg PUBLIC "-//W3C//DTD SVG 1.1//EN" "http://www.w3.org/Graphics/SVG/1.1/DTD/svg11.dtd">
<svg version="1.1" xmlns="http://www.w3.org/2000/svg" xmlns:xlink="http://www.w3.org/1999/xlink" x="0px" y="0px"
	 width="512px" height="512px" viewBox="0 0 512 512" enable-background="new 0 0 512 512" xml:space="preserve">
<path id="direction-4-icon" d="M252.216,102.643c30.296,0.004,9.684,85.709-1.647,112.623h159.358c29.553,0,29.268,39.735,0,39.735
	h-76.939c-46.705,0-39.078,27.322-25.127,23.753c5.144-1.316,14.273-3.28,14.273-3.28c-2.912,19.129-4.409,29.575-17.345,33.495
	l-10.279,3.268c-4.814,1.455-7.533,6.542-6.081,11.351c1.456,4.8,6.525,7.55,11.361,6.082l13.286-4.515
	c-2.298,17.267-3.986,29.494-16.506,33.284l-10.01,3.618c-4.817,1.454-7.535,6.54-6.077,11.357c1.461,4.82,6.553,7.533,11.354,6.073
	l10.747-3.797c-3.354,23.58-23.352,33.667-50.397,33.667c-58.053,0-77.405-42.896-172.171-42.896c0-35.029,0-125.993,0-125.993
	c47.6,0,82.259-19.145,106.93-43.814C234.013,149.584,230.435,102.64,252.216,102.643z M252.218,72.627
	c-45.44,0-43.985,60.578-86.136,102.729c-19.777,19.777-47.534,35.097-86.066,35.097H50v186.024h30.016
	c88.465,0,103.53,42.896,172.171,42.896c41.998,0,71.335-18.196,80.114-59.456c4.341-20.4,15.514-78.93,18.689-94.9h58.937
	c30.48,0,52.073-22.658,52.073-49.955c0-27.096-21.368-49.811-52.073-49.811H290.243C302.194,136.334,302.658,72.634,252.218,72.627
	z"/>
</svg>
