<?xml version="1.0" encoding="utf-8"?>
<!DOCTYPE svg PUBLIC "-//W3C//DTD SVG 1.1//EN" "http://www.w3.org/Graphics/SVG/1.1/DTD/svg11.dtd">

<svg version="1.1" xmlns="http://www.w3.org/2000/svg" xmlns:xlink="http://www.w3.org/1999/xlink" x="0px" y="0px" xml:space="preserve">
  <g>
    <path d="m 9.1700186,85.681725 20.2500004,-1.96875 c 1.218723,6.7969 3.691377,11.78908 7.417969,14.97656 3.726526,3.187525 8.753864,4.781275 15.082031,4.781255 6.703075,2e-5 11.753845,-1.41795 15.152345,-4.253915 3.39837,-2.83591 5.09759,-6.15231 5.09766,-9.94921 -7e-5,-2.43747 -0.71492,-4.51169 -2.14454,-6.22266 -1.42975,-1.7109 -3.92584,-3.19918 -7.48828,-4.46484 -2.43755,-0.84371 -7.992236,-2.34371 -16.66406,-4.5 -11.156281,-2.76558 -18.984398,-6.16402 -23.484375,-10.19532 -6.328137,-5.67181 -9.492196,-12.58587 -9.492188,-20.74218 -8e-6,-5.24992 1.488271,-10.16007 4.464844,-14.73047 2.976546,-4.57022 7.265605,-8.05069 12.867188,-10.44141 5.60153,-2.39052 12.363242,-3.58583 20.285156,-3.58594 12.937445,1.1e-4 22.675715,2.83604 29.214845,8.50782 6.53898,5.67196 9.97257,13.24227 10.30078,22.71093 l -20.8125,0.91407 c -0.89069,-5.2968 -2.80084,-9.10539 -5.73047,-11.42579 -2.92974,-2.32022 -7.32427,-3.48038 -13.183593,-3.48046 -6.046915,8e-5 -10.781285,1.24227 -14.203125,3.72656 -2.203154,1.59383 -3.304716,3.72664 -3.304687,6.39844 -2.9e-5,2.43757 1.03122,4.52351 3.09375,6.25781 2.624965,2.20319 8.999959,4.50006 19.125,6.89062 10.124935,2.39069 17.613215,4.86334 22.464845,7.41797 4.85148,2.55474 8.64835,6.04693 11.39062,10.47656 2.7421,4.42973 4.1132,9.90238 4.11328,16.41797 -8e-5,5.90628 -1.64071,11.437525 -4.92187,16.593755 -3.28133,5.15626 -7.92195,8.98829 -13.92187,11.4961 -6.00007,2.50781 -13.47662,3.76171 -22.429693,3.76172 -13.031284,-10e-6 -23.039087,-3.01172 -30.023437,-9.03516 C 14.701258,105.99034 10.529387,97.212995 9.1700186,85.681725 z" />
    <path d="m 136.92783,119.22079 -36.84375,-103.078125 22.57031,0 26.08594,76.28906 25.24218,-76.28906 22.07813,0 -36.91406,103.078125 z" />
    <path d="m 254.77158,81.322345 0,-17.36718 44.85937,0 0,41.062505 c -4.35947,4.21876 -10.67587,7.9336 -18.94922,11.14453 -8.27351,3.21093 -16.65241,4.8164 -25.13672,4.8164 -10.78129,0 -20.17972,-2.26172 -28.19531,-6.78515 -8.01565,-4.52343 -14.03908,-10.99217 -18.07031,-19.406255 -4.03126,-8.41403 -6.04688,-17.56637 -6.04688,-27.45703 0,-10.73432 2.25,-20.27337 6.75,-28.61719 4.49999,-8.34366 11.08592,-14.74209 19.75782,-19.19531 6.60933,-3.42178 14.83589,-5.13271 24.67968,-5.13282 12.79681,1.1e-4 22.79289,2.6837 29.98829,8.05078 7.19521,5.36728 11.82412,12.78524 13.88671,22.25391 l -20.67187,3.86719 c -1.4532,-5.06243 -4.18367,-9.05852 -8.19141,-11.98828 -4.00788,-2.92961 -9.01178,-4.39445 -15.01172,-4.39453 -9.09379,8e-5 -16.32426,2.88289 -21.6914,8.64843 -5.36722,5.7657 -8.05081,14.32038 -8.05078,25.66407 -3e-5,12.23441 2.71872,21.41018 8.15625,27.52734 5.43746,6.117215 12.56245,9.175805 21.375,9.175785 4.35931,2e-5 8.7304,-0.85545 13.11328,-2.56641 4.38274,-1.710915 8.14445,-3.785135 11.28515,-6.222655 l 0,-13.07813 z" />
  </g>
</svg>